<?xml version="1.0" encoding="utf-8"?>
<!-- Generator: Adobe Illustrator 16.0.0, SVG Export Plug-In . SVG Version: 6.00 Build 0)  -->
<!DOCTYPE svg PUBLIC "-//W3C//DTD SVG 1.1//EN" "http://www.w3.org/Graphics/SVG/1.1/DTD/svg11.dtd">
<svg version="1.1" id="图层_1" xmlns="http://www.w3.org/2000/svg" xmlns:xlink="http://www.w3.org/1999/xlink" x="0px" y="0px"
width="595.28px" height="125px" viewBox="0 0 595.28 125" enable-background="new 0 0 595.28 125" xml:space="preserve">
<g>
<defs>
<rect id="SVGID_1_" x="3.139" y="23.974" width="587.861" height="74.968"/>
</defs>
<clipPath id="SVGID_2_">
<use xlink:href="#SVGID_1_" overflow="visible"/>
</clipPath>
<path clip-path="url(#SVGID_2_)" fill-rule="evenodd" clip-rule="evenodd" fill="#106EB0" d="M491.043,25.084
c1.373,1.388,2.955,4.107,4.755,8.161c-0.045,0.157-1.732,1.324-5.086,3.503c-0.929,0.615-1.573,1.039-1.935,1.267h6.008
c0.023-0.097,0.067-0.258,0.144-0.498c1.064-3.103,2.249-7.351,3.57-12.741c4.29,0.105,7.433,0.308,9.413,0.611
c0.083,0.026,0.181,0.042,0.308,0.042c0.751,0.075,1.096,0.375,1.051,0.888c-0.6,1.253-1.426,3.196-2.453,5.811
c-0.556,1.387-0.981,2.426-1.275,3.124l-0.952,3.072h6.773l-4.778-2.918c3-3.034,5.761-6.159,8.288-9.402l7.899,4.932
c-2.355,1.853-5.018,4.208-7.952,7.08h6.774l-1.553,7.396h-18.798c-0.42,1.163-0.945,2.183-1.56,3.083h22.788l-1.546,7.389h-12.631
c2.655,3.086,6.885,5.445,12.676,7.096c-2.559,2.381-5.296,5.42-8.221,9.088c-1.755-0.803-4.127-2.499-7.104-5.095l-1.223,5.867
h9.548c-0.232,0.861-0.562,2.16-0.966,3.885c-1.711,6.767-3.151,11.927-4.322,15.438c-0.014,0.051-0.044,0.135-0.089,0.224
c-0.495,1.531-1.021,2.581-1.545,3.165c-1.711,2.025-6.166,3.165-13.346,3.391c0.232-2.985-0.284-5.851-1.575-8.625h-22.495
l1.545-7.322h27.725l-1.471,7.015c1.801,0.308,3.226-2.034,4.245-7.015l0.51-2.46h-25.877l2.865-9.24
c-1.592,1.356-2.979,2.339-4.156,2.926c-0.772-1.697-2.009-3.392-3.706-5.088l-4.605,21.948c-0.156,3.542-4.08,5.341-11.761,5.401
c0.239-3.24,0.03-6.391-0.645-9.481c3.18,0.286,4.876-0.436,5.085-2.153l2.648-12.624h-4.613
c-2.678,10.127-6.263,18.424-10.78,24.874c-1.536-2.31-3.449-4.472-5.714-6.474c4.245-6.698,7.297-14.379,9.143-23.027
l8.086-38.514h21.565l-7.822,37.275c4.89-2.64,9.105-6.135,12.676-10.475h-8.326l1.553-7.389h12.01
c0.187-0.36,0.449-0.871,0.794-1.545c0.337-0.66,0.601-1.174,0.779-1.538h-11.086l1.553-7.396h4.93
c-1.126-2.074-2.567-4.245-4.299-6.503c-0.382-0.518-0.584-0.806-0.614-0.885c0.382-0.255,0.952-0.63,1.688-1.114
C488.508,26.304,490.998,24.822,491.043,25.084 M462.659,47.265h4.62l2.206-10.475h-4.62L462.659,47.265z M461.106,54.653
l-2.063,9.863h4.613l2.076-9.863H461.106z M495.041,55.884c-0.277,0.368-0.698,0.874-1.245,1.545
c-0.547,0.667-0.968,1.182-1.245,1.541h6.772c-0.63-0.997-1.14-2.025-1.515-3.086H495.041z M495.115,73.141l1.494-7.082h-11.095
l-1.928,1.845h4.62c0.21,0,0.487,0.105,0.854,0.308c-0.486,1.262-1.042,2.902-1.641,4.93H495.115z"/>
<path clip-path="url(#SVGID_2_)" fill-rule="evenodd" clip-rule="evenodd" fill="#106EB0" d="M538.539,43.878
c-0.811-4.681-2.041-9.351-3.676-14.02c5.205-2.183,9.017-3.671,11.417-4.471c0.209,0.36,1.575,5.085,4.11,14.173
C544.33,41.748,540.385,43.177,538.539,43.878 M560.262,38.024h-7.081l1.809-8.634h33.888l-7.508,35.739
c-1.77,7.958-2.234,13.606-1.395,16.944c0.389,1.778,1.395,0.172,3-4.764c2.4,1.021,5.086,2.199,8.041,3.542
c-3.239,10.792-6.525,16.11-9.819,15.932c-3.179,0.493-5.888-0.841-8.093-4.006c-3.81-5.565-4.629-13.457-2.438-23.645l1.373-6.469
h-7.097l-7.035,33.504h-9.855l7.036-33.504h-8.928l1.809-8.626h8.926L560.262,38.024z M577.515,38.024h-7.396l-3.361,16.014h7.396
L577.515,38.024z M521.443,87.159c0.068-0.188,0.489-0.594,1.262-1.238c2.677-2.175,4.208-4.229,4.613-6.158l4.846-23.106h-8.777
l1.809-8.626h18.331l-5.497,26.191c1.35-1.052,3.584-2.956,6.705-5.702c0.78-0.689,1.366-1.208,1.741-1.537
c0.3,0.646,0.892,1.897,1.755,3.773c1.141,2.386,1.725,3.645,1.755,3.764c-10.974,9.661-17.784,15.896-20.463,18.724
c-1.785,1.8-2.774,2.67-2.97,2.626C524.122,93.107,522.419,90.212,521.443,87.159"/>
<polygon clip-path="url(#SVGID_2_)" fill-rule="evenodd" clip-rule="evenodd" fill="#106EB0" points="43.911,34.363 28.196,97.232
12.035,97.232 27.75,34.363 3.143,34.363 5.738,23.971 71.057,23.971 68.461,34.363"/>
<path clip-path="url(#SVGID_2_)" fill-rule="evenodd" clip-rule="evenodd" fill="#106EB0" d="M131.042,43.908l14.443,4.932
c6.519-4.279,13.203-6.405,20.046-6.405c7.857,0,13.487,1.95,16.908,5.85c2.955,3.327,3.503,8.743,1.62,16.262l-8.165,32.686
h-15.676l7.448-29.778c1.316-5.267,1.291-8.889-0.052-10.896c-1.291-2.052-4.316-3.072-9.08-3.072
c-5.176,0-9.193,1.354-12.035,4.047c-2.794,2.674-5.022,7.32-6.676,13.97l-6.436,25.729h-15.67L131.042,43.908z"/>
<path clip-path="url(#SVGID_2_)" fill-rule="evenodd" clip-rule="evenodd" fill="#106EB0" d="M250.768,44.673l-4.091,16.371
c-2.705-3.428-5.3-5.783-7.805-7.059c-2.441-1.316-5.54-1.976-9.279-1.976c-5.876,0-11.161,1.627-15.853,4.88
c-4.691,3.247-7.659,7.316-8.881,12.2c-1.242,5.004-0.398,9.114,2.543,12.323c2.988,3.212,7.414,4.816,13.288,4.816
c3.743,0,7.205-0.638,10.393-1.913c3.09-1.246,6.945-3.659,11.585-7.229l-4.066,16.262c-6.979,2.595-13.64,3.885-19.971,3.885
c-10.445,0-18.516-2.663-24.209-7.995c-5.682-5.372-7.535-12.025-5.547-19.983c1.991-7.951,7.231-14.665,15.718-20.148
c8.487-5.468,17.905-8.202,28.257-8.202C239.509,40.904,245.484,42.156,250.768,44.673"/>
<path clip-path="url(#SVGID_2_)" fill-rule="evenodd" clip-rule="evenodd" fill="#106EB0" d="M331.369,43.908l14.439,4.932
c6.526-4.279,13.202-6.405,20.044-6.405c7.86,0,13.502,1.95,16.907,5.85c2.97,3.327,3.51,8.743,1.62,16.262l-8.162,32.686h-15.669
l7.448-29.778c1.306-5.267,1.291-8.889-0.052-10.896c-1.299-2.052-4.329-3.072-9.084-3.072c-5.176,0-9.188,1.354-12.04,4.047
c-2.781,2.674-5.018,7.32-6.683,13.97l-6.428,25.729H318.04L331.369,43.908z"/>
<polygon clip-path="url(#SVGID_2_)" fill-rule="evenodd" clip-rule="evenodd" fill="#106EB0" points="416.813,56.368
406.598,97.232 390.994,97.232 401.212,56.368"/>
<polygon clip-path="url(#SVGID_2_)" fill-rule="evenodd" clip-rule="evenodd" fill="#106EB0" points="388.872,54.072
391.415,43.912 404.316,43.912 407.715,30.316 436.286,54.072"/>
<path clip-path="url(#SVGID_2_)" fill-rule="evenodd" clip-rule="evenodd" fill="#106EB0" d="M113.905,71.939H65.518
c-0.683,4.381,2.065,13.201,14.101,14.298c9.549,0.854,19.12-1.937,20.879-2.327l7.396,1.727
c-1.338,1.147-14.417,11.596-31.579,11.596c-10.073,0-17.526-2.551-22.356-7.667c-4.808-5.144-6.155-11.97-4.024-20.47
c2.104-8.434,6.766-15.257,13.985-20.477c7.249-5.149,15.8-7.722,25.646-7.722c9.939,0,17.178,2.504,21.7,7.504
c4.493,4.962,5.637,11.836,3.439,20.643L113.905,71.939z M100.412,61.865c-0.529-6.567-4.955-9.852-13.28-9.852
c-1.891,0-3.732,0.236-5.514,0.712c-1.777,0.439-3.465,1.092-5.07,1.977c-1.553,0.836-2.959,1.856-4.235,3.056
c-1.271,1.205-2.355,2.573-3.248,4.107H100.412z"/>
<path clip-path="url(#SVGID_2_)" fill-rule="evenodd" clip-rule="evenodd" fill="#106EB0" d="M315.587,71.939h-48.395
c-0.675,4.381,2.074,13.201,14.109,14.298c9.549,0.854,19.12-1.937,20.879-2.327l7.396,1.727
c-1.34,1.147-14.417,11.596-31.579,11.596c-10.078,0-17.527-2.551-22.356-7.667c-4.809-5.144-6.155-11.97-4.036-20.47
c2.115-8.434,6.776-15.257,13.996-20.477c7.25-5.149,15.801-7.722,25.646-7.722c9.939,0,17.168,2.504,21.7,7.504
c4.485,4.962,5.633,11.836,3.442,20.643L315.587,71.939z M302.095,61.865c-0.53-6.567-4.956-9.852-13.282-9.852
c-1.897,0-3.731,0.236-5.513,0.712c-1.778,0.439-3.458,1.092-5.071,1.977c-1.553,0.836-2.959,1.856-4.234,3.056
c-1.275,1.205-2.355,2.573-3.248,4.107H302.095z"/>
</g>
</svg>
